<svg xmlns="http://www.w3.org/2000/svg" viewBox="0 0 400 400" width="400" height="400" preserveAspectRatio="xMidYMid meet" style="width: 100%; height: 100%; transform: translate3d(0px, 0px, 0px); content-visibility: visible;"><defs><clipPath id="__lottie_element_2"><rect width="400" height="400" x="0" y="0"></rect></clipPath></defs><g clip-path="url(#__lottie_element_2)"><g transform="matrix(1,0,0,1,102.45599365234375,263.3499755859375)" opacity="1" style="display: block;"><g opacity="0.1" transform="matrix(1,0,0,1,105.56900024414062,124.86000061035156)"><path fill="rgb(43,43,43)" fill-opacity="1" d=" M-105.56800079345703,4.078999996185303 C-105.56800079345703,4.078999996185303 -17.2450008392334,-11.788999557495117 -17.2450008392334,-11.788999557495117 C-17.2450008392334,-11.788999557495117 105.56900024414062,4.078999996185303 105.56900024414062,4.078999996185303 C105.56900024414062,4.078999996185303 -23.297000885009766,11.791999816894531 -23.297000885009766,11.791999816894531 C-23.297000885009766,11.791999816894531 -105.56800079345703,4.078999996185303 -105.56800079345703,4.078999996185303z"></path></g><g opacity="1" transform="matrix(1,0,0,1,102.14299774169922,37.57600021362305)"><path fill="rgb(79,82,82)" fill-opacity="1" d=" M30.608999252319336,-37.32600021362305 C30.608999252319336,-37.32600021362305 17.148000717163086,20.28499984741211 17.148000717163086,20.28499984741211 C17.148000717163086,20.28499984741211 -2.7950000762939453,37.32600021362305 -2.7950000762939453,37.32600021362305 C-2.7950000762939453,37.32600021362305 -21.764999389648438,32.94200134277344 -21.764999389648438,32.94200134277344 C-21.764999389648438,32.94200134277344 -30.608999252319336,-0.8050000071525574 -30.608999252319336,-0.8050000071525574 C-30.608999252319336,-0.8050000071525574 30.608999252319336,-37.32600021362305 30.608999252319336,-37.32600021362305z"></path></g><g opacity="1" transform="matrix(1,0,0,1,99.81800079345703,79.32599639892578)"><path fill="rgb(70,70,70)" fill-opacity="1" d=" M-19.472000122070312,-8.795999526977539 C-19.472000122070312,-8.795999526977539 19.472000122070312,-21.46500015258789 19.472000122070312,-21.46500015258789 C19.472000122070312,-21.46500015258789 12.321999549865723,10.770000457763672 12.321999549865723,10.770000457763672 C12.321999549865723,10.770000457763672 5.159999847412109,19.558000564575195 5.159999847412109,19.558000564575195 C5.159999847412109,19.558000564575195 -11.494000434875488,21.46500015258789 -11.494000434875488,21.46500015258789 C-11.494000434875488,21.46500015258789 -19.472000122070312,-8.795999526977539 -19.472000122070312,-8.795999526977539z"></path></g><g opacity="1" transform="matrix(1,0,0,1,105.36900329589844,103.9990005493164)"><path fill="rgb(181,138,0)" fill-opacity="1" d=" M6.770999908447266,-13.904000282287598 C6.770999908447266,-13.904000282287598 17.045000076293945,-5.119999885559082 17.045000076293945,-5.119999885559082 C17.045000076293945,-5.119999885559082 14.92199993133545,13.904000282287598 14.92199993133545,13.904000282287598 C14.92199993133545,13.904000282287598 -16.729000091552734,9.48799991607666 -16.729000091552734,9.48799991607666 C-16.729000091552734,9.48799991607666 -17.045000076293945,-3.2100000381469727 -17.045000076293945,-3.2100000381469727 C-17.045000076293945,-3.2100000381469727 6.770999908447266,-13.904000282287598 6.770999908447266,-13.904000282287598z"></path></g><g opacity="1" transform="matrix(1,0,0,1,114.1969985961914,110.06800079345703)"><path fill="rgb(133,99,0)" fill-opacity="1" d=" M8.217000007629395,-11.189000129699707 C8.217000007629395,-11.189000129699707 2.696000099182129,3.4179999828338623 2.696000099182129,3.4179999828338623 C2.696000099182129,3.4179999828338623 -25.55699920654297,3.4179999828338623 -25.55699920654297,3.4179999828338623 C-25.55699920654297,3.4179999828338623 -25.55699920654297,11.189000129699707 -25.55699920654297,11.189000129699707 C-25.55699920654297,11.189000129699707 25.55699920654297,11.189000129699707 25.55699920654297,11.189000129699707 C25.55699920654297,11.189000129699707 25.55699920654297,3.4179999828338623 25.55699920654297,3.4179999828338623 C25.55699920654297,3.4179999828338623 8.217000007629395,-11.189000129699707 8.217000007629395,-11.189000129699707z"></path></g><g opacity="1" transform="matrix(1,0,0,1,69.05999755859375,52.96799850463867)"><path fill="rgb(133,133,133)" fill-opacity="1" d=" M-29.304000854492188,-35.612998962402344 C-29.304000854492188,-35.612998962402344 -30.28700065612793,14.706000328063965 -30.28700065612793,14.706000328063965 C-30.28700065612793,14.706000328063965 -10.045999526977539,35.612998962402344 -10.045999526977539,35.612998962402344 C-10.045999526977539,35.612998962402344 11.28499984741211,17.562000274658203 11.28499984741211,17.562000274658203 C11.28499984741211,17.562000274658203 30.28700065612793,-12.14799976348877 30.28700065612793,-12.14799976348877 C30.28700065612793,-12.14799976348877 3.071000099182129,-35.612998962402344 3.071000099182129,-35.612998962402344 C3.071000099182129,-35.612998962402344 -29.304000854492188,-35.612998962402344 -29.304000854492188,-35.612998962402344z"></path></g><g opacity="1" transform="matrix(1,0,0,1,59.20800018310547,86.41300201416016)"><path fill="rgb(110,112,115)" fill-opacity="1" d=" M21.13800048828125,-15.883000373840332 C21.13800048828125,-15.883000373840332 -20.434999465942383,-18.73900032043457 -20.434999465942383,-18.73900032043457 C-20.434999465942383,-18.73900032043457 -21.13800048828125,17.218000411987305 -21.13800048828125,17.218000411987305 C-21.13800048828125,17.218000411987305 -4.63700008392334,18.73900032043457 -4.63700008392334,18.73900032043457 C-4.63700008392334,18.73900032043457 3.0950000286102295,14.376999855041504 3.0950000286102295,14.376999855041504 C3.0950000286102295,14.376999855041504 21.13800048828125,-15.883000373840332 21.13800048828125,-15.883000373840332z"></path></g><g opacity="1" transform="matrix(1,0,0,1,86.25399780273438,20.53499984741211)"><path fill="rgb(110,112,115)" fill-opacity="1" d=" M46.49800109863281,-20.28499984741211 C46.49800109863281,-20.28499984741211 13.093999862670898,20.28499984741211 13.093999862670898,20.28499984741211 C13.093999862670898,20.28499984741211 -46.49800109863281,-3.180000066757202 -46.49800109863281,-3.180000066757202 C-46.49800109863281,-3.180000066757202 11.385000228881836,-18.934999465942383 11.385000228881836,-18.934999465942383 C11.385000228881836,-18.934999465942383 44.23099899291992,-27.805999755859375 44.23099899291992,-27.805999755859375 C44.23099899291992,-27.805999755859375 46.49800109863281,-20.28499984741211 46.49800109863281,-20.28499984741211z"></path></g><g opacity="1" transform="matrix(1,0,0,1,53.06999969482422,110.97899627685547)"><path fill="rgb(181,138,0)" fill-opacity="1" d=" M9.232999801635742,-10.189000129699707 C9.232999801635742,-10.189000129699707 18.55299949645996,10.1899995803833 18.55299949645996,10.1899995803833 C18.55299949645996,10.1899995803833 -18.55299949645996,10.1899995803833 -18.55299949645996,10.1899995803833 C-18.55299949645996,10.1899995803833 -14.99899959564209,-7.3480000495910645 -14.99899959564209,-7.3480000495910645 C-14.99899959564209,-7.3480000495910645 9.232999801635742,-10.189000129699707 9.232999801635742,-10.189000129699707z"></path></g><g opacity="1" transform="matrix(1,0,0,1,53.06999969482422,119.60700225830078)"><path fill="rgb(133,99,0)" fill-opacity="1" d=" M2.431999921798706,-9.331999778747559 C2.431999921798706,-9.331999778747559 -18.55299949645996,1.562000036239624 -18.55299949645996,1.562000036239624 C-18.55299949645996,1.562000036239624 -18.55299949645996,9.331999778747559 -18.55299949645996,9.331999778747559 C-18.55299949645996,9.331999778747559 18.55299949645996,9.331999778747559 18.55299949645996,9.331999778747559 C18.55299949645996,9.331999778747559 18.55299949645996,1.562000036239624 18.55299949645996,1.562000036239624 C18.55299949645996,1.562000036239624 2.431999921798706,-9.331999778747559 2.431999921798706,-9.331999778747559z"></path></g></g><g transform="matrix(1,-0.0000073605074248916935,0.0000073605074248916935,1,123.11018371582031,163.33758544921875)" opacity="1" style="display: block;"><g opacity="1" transform="matrix(1,0,0,1,39.47100067138672,67.51699829101562)"><path fill="rgb(187,143,44)" fill-opacity="1" d=" M-13.9399995803833,-57.558998107910156 C-13.9399995803833,-57.558998107910156 -20.3700008392334,-50.308998107910156 -20.3700008392334,-50.308998107910156 C-20.3700008392334,-50.308998107910156 -25.608999252319336,-49.3849983215332 -25.608999252319336,-49.3849983215332 C-25.608999252319336,-49.3849983215332 -39.22100067138672,-39.85200119018555 -39.22100067138672,-39.85200119018555 C-39.22100067138672,-39.85200119018555 -20.3700008392334,49.85200119018555 -20.3700008392334,49.85200119018555 C-20.3700008392334,49.85200119018555 23.600000381469727,67.26699829101562 23.600000381469727,67.26699829101562 C23.600000381469727,67.26699829101562 39.22100067138672,40.35499954223633 39.22100067138672,40.35499954223633 C39.22100067138672,40.35499954223633 33.5359992980957,-4.500999927520752 33.5359992980957,-4.500999927520752 C33.5359992980957,-4.500999927520752 27.176000595092773,-67.26699829101562 27.176000595092773,-67.26699829101562 C27.176000595092773,-67.26699829101562 -13.9399995803833,-57.558998107910156 -13.9399995803833,-57.558998107910156z"></path></g><g opacity="1" transform="matrix(1,0,0,1,80.79499816894531,63.39400100708008)"><path fill="rgb(204,172,19)" fill-opacity="1" d=" M-27.2450008392334,-47.60100173950195 C-27.2450008392334,-47.60100173950195 -2.1019999980926514,44.479000091552734 -2.1019999980926514,44.479000091552734 C-2.1019999980926514,44.479000091552734 12.053999900817871,60.24700164794922 12.053999900817871,60.24700164794922 C12.053999900817871,60.24700164794922 31.301000595092773,36.87099838256836 31.301000595092773,36.87099838256836 C31.301000595092773,36.87099838256836 7.735000133514404,-57.76900100708008 7.735000133514404,-57.76900100708008 C7.735000133514404,-57.76900100708008 -2.3519999980926514,-60.24700164794922 -2.3519999980926514,-60.24700164794922 C-2.3519999980926514,-60.24700164794922 -14.59000015258789,-61.75899887084961 -14.59000015258789,-61.75899887084961 C-14.59000015258789,-61.75899887084961 -31.301000595092773,-59.09400177001953 -31.301000595092773,-59.09400177001953 C-31.301000595092773,-59.09400177001953 -27.2450008392334,-47.60100173950195 -27.2450008392334,-47.60100173950195z"></path></g><g opacity="1" transform="matrix(1,0,0,1,39.540000915527344,24.8799991607666)"><path fill="rgb(244,214,93)" fill-opacity="1" d=" M14.010000228881836,-9.086999893188477 C14.010000228881836,-9.086999893188477 -4.64300012588501,14.92199993133545 -4.64300012588501,14.92199993133545 C-4.64300012588501,14.92199993133545 -14.010000228881836,-14.92199993133545 -14.010000228881836,-14.92199993133545 C-14.010000228881836,-14.92199993133545 14.010000228881836,-9.086999893188477 14.010000228881836,-9.086999893188477z"></path></g><g opacity="1" transform="matrix(1,0,0,1,68.08899688720703,13.336000442504883)"><path fill="rgb(244,214,93)" fill-opacity="1" d=" M-1.4429999589920044,-13.086000442504883 C-1.4429999589920044,-13.086000442504883 14.539999961853027,13.086000442504883 14.539999961853027,13.086000442504883 C14.539999961853027,13.086000442504883 -14.539999961853027,2.4579999446868896 -14.539999961853027,2.4579999446868896 C-14.539999961853027,2.4579999446868896 -13.649999618530273,-13.461000442504883 -13.649999618530273,-13.461000442504883 C-13.649999618530273,-13.461000442504883 -1.4429999589920044,-13.086000442504883 -1.4429999589920044,-13.086000442504883z"></path></g></g><g transform="matrix(1,-0.0000073605074248916935,0.0000073605074248916935,1,207.1762237548828,168.7119598388672)" opacity="1" style="display: block;"><g opacity="1" transform="matrix(1,0,0,1,21.64900016784668,37.66400146484375)"><path fill="rgb(117,87,0)" fill-opacity="1" d=" M-17.18400001525879,-37.41400146484375 C-17.18400001525879,-37.41400146484375 21.39900016784668,15.628000259399414 21.39900016784668,15.628000259399414 C21.39900016784668,15.628000259399414 1.7599999904632568,37.41400146484375 1.7599999904632568,37.41400146484375 C1.7599999904632568,37.41400146484375 -21.39900016784668,14.085000038146973 -21.39900016784668,14.085000038146973 C-21.39900016784668,14.085000038146973 -17.18400001525879,-37.41400146484375 -17.18400001525879,-37.41400146484375z"></path></g></g><g transform="matrix(0.9999997615814209,0.0006953096599318087,-0.0006953096599318087,0.9999997615814209,100.59869384765625,190.73680114746094)" opacity="1" style="display: block;"><g opacity="1" transform="matrix(1,0,0,1,17.95400047302246,31.031999588012695)"><path fill="rgb(117,87,0)" fill-opacity="1" d=" M4.808000087738037,-30.781999588012695 C4.808000087738037,-30.781999588012695 -17.70400047302246,11.611000061035156 -17.70400047302246,11.611000061035156 C-17.70400047302246,11.611000061035156 12.829999923706055,30.781999588012695 12.829999923706055,30.781999588012695 C12.829999923706055,30.781999588012695 24.200000762939453,8.75 24.200000762939453,8.75 C24.200000762939453,8.75 17.70400047302246,-5.781000137329102 17.70400047302246,-5.781000137329102 C17.70400047302246,-5.781000137329102 4.808000087738037,-30.781999588012695 4.808000087738037,-30.781999588012695z"></path></g></g><g transform="matrix(1,-0.000007407200428133365,0.000007407200428133365,1,225.5626678466797,228.02883911132812)" opacity="1" style="display: block;"><g opacity="1" transform="matrix(1,0,0,1,20.392000198364258,15.088000297546387)"><path fill="rgb(158,119,0)" fill-opacity="1" d=" M-19.083999633789062,14.83899974822998 C-19.083999633789062,14.83899974822998 20.14299964904785,-0.503000020980835 20.14299964904785,-0.503000020980835 C20.14299964904785,-0.503000020980835 7.421000003814697,-14.83899974822998 7.421000003814697,-14.83899974822998 C7.421000003814697,-14.83899974822998 -20.14299964904785,-0.8519999980926514 -20.14299964904785,-0.8519999980926514 C-20.14299964904785,-0.8519999980926514 -19.083999633789062,14.83899974822998 -19.083999633789062,14.83899974822998z"></path></g></g><g transform="matrix(1,-0.0000073605074248916935,0.0000073605074248916935,1,141.22792053222656,263.6014404296875)" opacity="0.2" style="display: block;"><g opacity="1" transform="matrix(1,0,0,1,46.9900016784668,33.71200180053711)"><path fill="rgb(43,43,43)" fill-opacity="1" d=" M46.98899841308594,-33.71200180053711 C46.98899841308594,-33.71200180053711 -2.0360000133514404,0.8090000152587891 -2.0360000133514404,0.8090000152587891 C-2.0360000133514404,0.8090000152587891 -46.98899841308594,33.71200180053711 -46.98899841308594,33.71200180053711 C-46.98899841308594,33.71200180053711 -46.00600051879883,3.693000078201294 -46.00600051879883,3.693000078201294 C-46.00600051879883,3.693000078201294 -24.524999618530273,-54.59000015258789 -24.524999618530273,-54.59000015258789 C-24.524999618530273,-54.59000015258789 36.35100173950195,-60.90599822998047 36.35100173950195,-60.90599822998047 C36.35100173950195,-60.90599822998047 44.645999908447266,-39.70100021362305 44.645999908447266,-39.70100021362305 C44.645999908447266,-39.70100021362305 46.98899841308594,-33.71200180053711 46.98899841308594,-33.71200180053711z"></path></g></g><g transform="matrix(1,-0.0000073605074248916935,0.0000073605074248916935,1,118.83018493652344,163.33761596679688)" opacity="1" style="display: block;"><g opacity="1" transform="matrix(1,0,0,1,84.85600280761719,17.20800018310547)"><path fill="rgb(110,112,115)" fill-opacity="1" d=" M13.928999900817871,12.41100025177002 C13.928999900817871,12.41100025177002 -2.132999897003174,-14.060999870300293 -2.132999897003174,-14.060999870300293 C-2.132999897003174,-14.060999870300293 -13.928999900817871,-16.95800018310547 -13.928999900817871,-16.95800018310547 C-13.928999900817871,-16.95800018310547 6.7829999923706055,16.95800018310547 6.7829999923706055,16.95800018310547 C6.7829999923706055,16.95800018310547 13.928999900817871,12.41100025177002 13.928999900817871,12.41100025177002z"></path></g><g opacity="1" transform="matrix(1,0,0,1,20.266000747680664,33.540000915527344)"><path fill="rgb(110,112,115)" fill-opacity="1" d=" M9.545000076293945,-23.58300018310547 C9.545000076293945,-23.58300018310547 -2.124000072479248,23.266000747680664 -2.124000072479248,23.266000747680664 C-2.124000072479248,23.266000747680664 -9.545000076293945,23.58300018310547 -9.545000076293945,23.58300018310547 C-9.545000076293945,23.58300018310547 -2.124000072479248,-15.407999992370605 -2.124000072479248,-15.407999992370605 C-2.124000072479248,-15.407999992370605 9.545000076293945,-23.58300018310547 9.545000076293945,-23.58300018310547z"></path></g></g><g transform="matrix(1,-0.000007407200428133365,0.000007407200428133365,1,118.83018493652344,163.33761596679688)" opacity="1" style="display: block;"><g opacity="1" transform="matrix(1,0,0,1,58.3129997253418,88.2959976196289)"><path fill="rgb(157,160,161)" fill-opacity="1" d=" M58.0629997253418,11.967000007629395 C58.0629997253418,11.967000007629395 -58.0629997253418,58.678001403808594 -58.0629997253418,58.678001403808594 C-58.0629997253418,58.678001403808594 -33.58399963378906,-13.791999816894531 -33.58399963378906,-13.791999816894531 C-33.58399963378906,-13.791999816894531 -47.59299850463867,-31.173999786376953 -47.59299850463867,-31.173999786376953 C-47.59299850463867,-31.173999786376953 40.47200012207031,-58.678001403808594 40.47200012207031,-58.678001403808594 C40.47200012207031,-58.678001403808594 35.29199981689453,-16.347000122070312 35.29199981689453,-16.347000122070312 C35.29199981689453,-16.347000122070312 58.0629997253418,11.967000007629395 58.0629997253418,11.967000007629395z"></path></g><g opacity="1" transform="matrix(1,0,0,1,20.333999633789062,102.0479965209961)"><path fill="rgb(110,112,115)" fill-opacity="1" d=" M20.08300018310547,-22.586000442504883 C20.08300018310547,-22.586000442504883 14.949000358581543,4.368000030517578 14.949000358581543,4.368000030517578 C14.949000358581543,4.368000030517578 -20.08300018310547,44.92599868774414 -20.08300018310547,44.92599868774414 C-20.08300018310547,44.92599868774414 -9.61400032043457,-44.92599868774414 -9.61400032043457,-44.92599868774414 C-9.61400032043457,-44.92599868774414 20.08300018310547,-22.586000442504883 20.08300018310547,-22.586000442504883z"></path></g><g opacity="1" transform="matrix(1,0,0,1,92.15299987792969,64.94200134277344)"><path fill="rgb(206,206,205)" fill-opacity="1" d=" M6.631999969482422,-35.323001861572266 C6.631999969482422,-35.323001861572266 -24.222999572753906,6.7779998779296875 -24.222999572753906,6.7779998779296875 C-24.222999572753906,6.7779998779296875 -16.847999572753906,29.562000274658203 -16.847999572753906,29.562000274658203 C-16.847999572753906,29.562000274658203 24.222999572753906,35.323001861572266 24.222999572753906,35.323001861572266 C24.222999572753906,35.323001861572266 6.631999969482422,-35.323001861572266 6.631999969482422,-35.323001861572266z"></path></g><g opacity="1" transform="matrix(1,0,0,1,133.3679962158203,70.02899932861328)"><path fill="rgb(70,70,70)" fill-opacity="1" d=" M-1.024999976158142,-11.798999786376953 C-1.024999976158142,-11.798999786376953 -44.77399826049805,12.347999572753906 -44.77399826049805,12.347999572753906 C-44.77399826049805,12.347999572753906 -42.8489990234375,19.198999404907227 -42.8489990234375,19.198999404907227 C-42.8489990234375,19.198999404907227 43.257999420166016,-16.386999130249023 43.257999420166016,-16.386999130249023 C43.257999420166016,-16.386999130249023 44.77399826049805,-18.676000595092773 44.77399826049805,-18.676000595092773 C44.77399826049805,-18.676000595092773 42.85200119018555,-19.198999404907227 42.85200119018555,-19.198999404907227 C42.85200119018555,-19.198999404907227 -1.024999976158142,-11.798999786376953 -1.024999976158142,-11.798999786376953z"></path></g><g opacity="1" transform="matrix(1,0,0,1,132.1199951171875,64.41200256347656)"><path fill="rgb(70,70,70)" fill-opacity="1" d=" M43.46500015258789,-17.965999603271484 C43.46500015258789,-17.965999603271484 -0.7269999980926514,-5.745999813079834 -0.7269999980926514,-5.745999813079834 C-0.7269999980926514,-5.745999813079834 -45.21099853515625,11.967000007629395 -45.21099853515625,11.967000007629395 C-45.21099853515625,11.967000007629395 -43.525001525878906,17.965999603271484 -43.525001525878906,17.965999603271484 C-43.525001525878906,17.965999603271484 44.10100173950195,-13.583000183105469 44.10100173950195,-13.583000183105469 C44.10100173950195,-13.583000183105469 45.21200180053711,-17.05900001525879 45.21200180053711,-17.05900001525879 C45.21200180053711,-17.05900001525879 43.46500015258789,-17.965999603271484 43.46500015258789,-17.965999603271484z"></path></g><g opacity="1" transform="matrix(1,0,0,1,131.17999267578125,59.141998291015625)"><path fill="rgb(110,112,115)" fill-opacity="1" d=" M43.75199890136719,-17.23699951171875 C43.75199890136719,-17.23699951171875 -0.578000009059906,-6.39300012588501 -0.578000009059906,-6.39300012588501 C-0.578000009059906,-6.39300012588501 -46.1510009765625,10.543000221252441 -46.1510009765625,10.543000221252441 C-46.1510009765625,10.543000221252441 -44.27000045776367,17.23699951171875 -44.27000045776367,17.23699951171875 C-44.27000045776367,17.23699951171875 44.40399932861328,-12.696000099182129 44.40399932861328,-12.696000099182129 C44.40399932861328,-12.696000099182129 46.152000427246094,-14.970999717712402 46.152000427246094,-14.970999717712402 C46.152000427246094,-14.970999717712402 43.75199890136719,-17.23699951171875 43.75199890136719,-17.23699951171875z"></path></g><g opacity="1" transform="matrix(1,0,0,1,130.08999633789062,53.904998779296875)"><path fill="rgb(133,133,133)" fill-opacity="1" d=" M44.292999267578125,-15.781000137329102 C44.292999267578125,-15.781000137329102 -46.5359992980957,10.538000106811523 -46.5359992980957,10.538000106811523 C-46.5359992980957,10.538000106811523 -45.0620002746582,15.781000137329102 -45.0620002746582,15.781000137329102 C-45.0620002746582,15.781000137329102 44.840999603271484,-12 44.840999603271484,-12 C44.840999603271484,-12 46.5359992980957,-14.300999641418457 46.5359992980957,-14.300999641418457 C46.5359992980957,-14.300999641418457 44.292999267578125,-15.781000137329102 44.292999267578125,-15.781000137329102z"></path></g><g opacity="1" transform="matrix(1,0,0,1,59.5629997253418,86.68199920654297)"><path fill="rgb(70,70,70)" fill-opacity="1" d=" M9.123000144958496,-16.625 C9.123000144958496,-16.625 15.743000030517578,7.821000099182129 15.743000030517578,7.821000099182129 C15.743000030517578,7.821000099182129 -12.347000122070312,16.625 -12.347000122070312,16.625 C-12.347000122070312,16.625 -15.743000030517578,-4.013999938964844 -15.743000030517578,-4.013999938964844 C-15.743000030517578,-4.013999938964844 -1.7020000219345093,-13.02299976348877 -1.7020000219345093,-13.02299976348877 C-1.7020000219345093,-13.02299976348877 9.123000144958496,-16.625 9.123000144958496,-16.625z"></path></g><g opacity="1" transform="matrix(1,0,0,1,0,0)"><g opacity="1" transform="matrix(1,0,0,1,113.64800262451172,60.02799987792969)"><path fill="rgb(235,235,235)" fill-opacity="1" d=" M-61.28300094604492,18.899999618530273 C-61.28300094604492,18.899999618530273 -46.67300033569336,14.390000343322754 -46.67300033569336,14.390000343322754 C-46.67300033569336,14.390000343322754 61.16999816894531,-18.899999618530273 61.16999816894531,-18.899999618530273 C61.16999816894531,-18.899999618530273 61.28300094604492,-18.121999740600586 61.28300094604492,-18.121999740600586 C61.28300094604492,-18.121999740600586 -46.25400161743164,15.107000350952148 -46.25400161743164,15.107000350952148 C-46.25400161743164,15.107000350952148 -58.29600143432617,18.827999114990234 -58.29600143432617,18.827999114990234 C-58.29600143432617,18.827999114990234 -61.28300094604492,18.899999618530273 -61.28300094604492,18.899999618530273z"></path></g><g opacity="1" transform="matrix(1,0,0,1,113.05000305175781,67.11000061035156)"><path fill="rgb(235,235,235)" fill-opacity="1" d=" M-62.53499984741211,20.746999740600586 C-62.53499984741211,20.746999740600586 -15.057499885559082,4.434000015258789 -15.057499885559082,4.434000015258789 C-15.057499885559082,4.434000015258789 62.41600036621094,-21.474000930786133 62.41600036621094,-21.474000930786133 C62.41600036621094,-21.474000930786133 62.53499984741211,-20.663999557495117 62.53499984741211,-20.663999557495117 C62.53499984741211,-20.663999557495117 -16.408000946044922,6.276500225067139 -16.408000946044922,6.276500225067139 C-16.408000946044922,6.276500225067139 -62.29899978637695,21.474000930786133 -62.29899978637695,21.474000930786133 C-62.29899978637695,21.474000930786133 -62.53499984741211,20.746999740600586 -62.53499984741211,20.746999740600586z"></path></g><g opacity="1" transform="matrix(1,0,0,1,116.1989974975586,71.94999694824219)"><path fill="rgb(235,235,235)" fill-opacity="1" d=" M-60.020999908447266,21.288000106811523 C-60.020999908447266,21.288000106811523 -43.09400177001953,15.175999641418457 -43.09400177001953,15.175999641418457 C-43.09400177001953,15.175999641418457 59.89400100708008,-22.010000228881836 59.89400100708008,-22.010000228881836 C59.89400100708008,-22.010000228881836 60.020999908447266,-21.1200008392334 60.020999908447266,-21.1200008392334 C60.020999908447266,-21.1200008392334 -42.638999938964844,15.842000007629395 -42.638999938964844,15.842000007629395 C-42.638999938964844,15.842000007629395 -59.77299880981445,22.010000228881836 -59.77299880981445,22.010000228881836 C-59.77299880981445,22.010000228881836 -60.020999908447266,21.288000106811523 -60.020999908447266,21.288000106811523z"></path></g></g><g opacity="1" transform="matrix(1,0,0,1,194.52499389648438,46.98500061035156)"><path fill="rgb(133,133,133)" fill-opacity="1" d=" M-11.77299976348877,-7.067999839782715 C-11.77299976348877,-7.067999839782715 -5.973999977111816,3.874000072479248 -5.973999977111816,3.874000072479248 C-5.973999977111816,3.874000072479248 9.802000045776367,7.067999839782715 9.802000045776367,7.067999839782715 C9.802000045776367,7.067999839782715 11.77299976348877,-5.129000186920166 11.77299976348877,-5.129000186920166 C11.77299976348877,-5.129000186920166 -11.77299976348877,-7.067999839782715 -11.77299976348877,-7.067999839782715z"></path></g><g opacity="1" transform="matrix(1,0,0,1,190.4759979248047,49.31999969482422)"><path fill="rgb(110,112,115)" fill-opacity="1" d=" M-13.850000381469727,4.321000099182129 C-13.850000381469727,4.321000099182129 10.071999549865723,4.675000190734863 10.071999549865723,4.675000190734863 C10.071999549865723,4.675000190734863 13.850000381469727,4.73199987411499 13.850000381469727,4.73199987411499 C13.850000381469727,4.73199987411499 7.440999984741211,-0.6470000147819519 7.440999984741211,-0.6470000147819519 C7.440999984741211,-0.6470000147819519 -10.746999740600586,-4.73199987411499 -10.746999740600586,-4.73199987411499 C-10.746999740600586,-4.73199987411499 -13.850000381469727,4.321000099182129 -13.850000381469727,4.321000099182129z"></path></g><g opacity="1" transform="matrix(1,0,0,1,190.34100341796875,43.012001037597656)"><path fill="rgb(157,160,161)" fill-opacity="1" d=" M-15.956999778747559,-4.888000011444092 C-15.956999778747559,-4.888000011444092 -13.71500015258789,10.630000114440918 -13.71500015258789,10.630000114440918 C-13.71500015258789,10.630000114440918 7.577000141143799,5.660999774932861 7.577000141143799,5.660999774932861 C7.577000141143799,5.660999774932861 15.956999778747559,-1.156999945640564 15.956999778747559,-1.156999945640564 C15.956999778747559,-1.156999945640564 -7.09499979019165,-10.630000114440918 -7.09499979019165,-10.630000114440918 C-7.09499979019165,-10.630000114440918 -15.956999778747559,-4.888000011444092 -15.956999778747559,-4.888000011444092z"></path></g><g opacity="1" transform="matrix(1,0,0,1,188.3509979248047,31.433000564575195)"><path fill="rgb(110,112,115)" fill-opacity="1" d=" M-1.4980000257492065,2.431999921798706 C-1.4980000257492065,2.431999921798706 -3.9170000553131104,-2.431999921798706 -3.9170000553131104,-2.431999921798706 C-3.9170000553131104,-2.431999921798706 3.9170000553131104,-1.503000020980835 3.9170000553131104,-1.503000020980835 C3.9170000553131104,-1.503000020980835 -1.4980000257492065,2.431999921798706 -1.4980000257492065,2.431999921798706z"></path></g><g opacity="1" transform="matrix(1,0,0,1,197.05099487304688,33.79899978637695)"><path fill="rgb(110,112,115)" fill-opacity="1" d=" M-3.382999897003174,2.867000102996826 C-3.382999897003174,2.867000102996826 -3.382999897003174,-2.867000102996826 -3.382999897003174,-2.867000102996826 C-3.382999897003174,-2.867000102996826 3.382999897003174,1.0010000467300415 3.382999897003174,1.0010000467300415 C3.382999897003174,1.0010000467300415 -3.382999897003174,2.867000102996826 -3.382999897003174,2.867000102996826z"></path></g><g opacity="1" transform="matrix(1,0,0,1,205.3520050048828,37.60900115966797)"><path fill="rgb(110,112,115)" fill-opacity="1" d=" M-3.0369999408721924,2.609999895095825 C-3.0369999408721924,2.609999895095825 -3.750999927520752,-2.609999895095825 -3.750999927520752,-2.609999895095825 C-3.750999927520752,-2.609999895095825 3.750999927520752,-1 3.750999927520752,-1 C3.750999927520752,-1 -3.0369999408721924,2.609999895095825 -3.0369999408721924,2.609999895095825z"></path></g></g><g transform="matrix(1,-0.000007407200428133365,0.000007407200428133365,1,241.58053588867188,210.6127166748047)" opacity="1" style="display: block;"><g opacity="1" transform="matrix(1,0,0,1,17.684999465942383,23.823999404907227)"><path fill="rgb(138,102,81)" fill-opacity="1" d=" M-13.732000350952148,3.1730000972747803 C-13.732000350952148,3.1730000972747803 6.829999923706055,8.178000450134277 6.829999923706055,8.178000450134277 C6.829999923706055,8.178000450134277 13.732000350952148,-8.178000450134277 13.732000350952148,-8.178000450134277 C13.732000350952148,-8.178000450134277 -0.3019999861717224,-8.178000450134277 -0.3019999861717224,-8.178000450134277 C-0.3019999861717224,-8.178000450134277 -13.732000350952148,3.1730000972747803 -13.732000350952148,3.1730000972747803z"></path></g><g opacity="1" transform="matrix(1,0,0,1,15.833000183105469,13.62399959564209)"><path fill="rgb(223,188,164)" fill-opacity="1" d=" M15.583999633789062,2.0230000019073486 C15.583999633789062,2.0230000019073486 3.3570001125335693,-13.37399959564209 3.3570001125335693,-13.37399959564209 C3.3570001125335693,-13.37399959564209 -15.583999633789062,-3.7769999504089355 -15.583999633789062,-3.7769999504089355 C-15.583999633789062,-3.7769999504089355 -11.880999565124512,13.37399959564209 -11.880999565124512,13.37399959564209 C-11.880999565124512,13.37399959564209 15.583999633789062,2.0230000019073486 15.583999633789062,2.0230000019073486z"></path></g></g><g transform="matrix(0.9999975562095642,-0.002232481027022004,0.002232481027022004,0.9999975562095642,100.56848907470703,233.1295166015625)" opacity="1" style="display: block;"><g opacity="1" transform="matrix(1,0,0,1,34.78799819946289,18.43000030517578)"><path fill="rgb(158,119,0)" fill-opacity="1" d=" M23.84485626220703,-8.779576301574707 C23.84485626220703,-8.779576301574707 34.54024124145508,9.511344909667969 34.54024124145508,9.511344909667969 C34.54024124145508,9.511344909667969 18.750492095947266,18.177316665649414 18.750492095947266,18.177316665649414 C18.750492095947266,18.177316665649414 -30.93000030517578,15.071000099182129 -30.93000030517578,15.071000099182129 C-30.93000030517578,15.071000099182129 -34.53799819946289,-18.18000030517578 -34.53799819946289,-18.18000030517578 C-34.53799819946289,-18.18000030517578 23.84485626220703,-8.779576301574707 23.84485626220703,-8.779576301574707z"></path></g><g opacity="1" transform="matrix(0.9999984502792358,-0.0017566747264936566,0.0017566747264936566,0.9999984502792358,-0.04080963134765625,0.09311676025390625)"><g opacity="1" transform="matrix(0.999994158744812,0.0034180155489593744,-0.0034180155489593744,0.999994158744812,68.3989028930664,10.681299209594727)"><path fill="rgb(195,151,122)" fill-opacity="1" d=" M7.699999809265137,-6.794000148773193 C7.699999809265137,-6.794000148773193 9.744000434875488,-3.003999948501587 9.744000434875488,-3.003999948501587 C9.744000434875488,-3.003999948501587 4.739999771118164,5.923999786376953 4.739999771118164,5.923999786376953 C4.739999771118164,5.923999786376953 -2.86299991607666,6.794000148773193 -2.86299991607666,6.794000148773193 C-2.86299991607666,6.794000148773193 -9.744000434875488,-0.9890000224113464 -9.744000434875488,-0.9890000224113464 C-9.744000434875488,-0.9890000224113464 7.699999809265137,-6.794000148773193 7.699999809265137,-6.794000148773193z"></path></g><g opacity="1" transform="matrix(1,0,0,1,68.82099914550781,24.639999389648438)"><path fill="rgb(223,188,164)" fill-opacity="1" d=" M5.400000095367432,14.984000205993652 C5.400000095367432,14.984000205993652 -15.307000160217285,11.968999862670898 -15.307000160217285,11.968999862670898 C-15.307000160217285,11.968999862670898 -10.17300033569336,-14.984000205993652 -10.17300033569336,-14.984000205993652 C-10.17300033569336,-14.984000205993652 12.795999526977539,-4.020999908447266 12.795999526977539,-4.020999908447266 C12.795999526977539,-4.020999908447266 15.307000160217285,0.7519999742507935 15.307000160217285,0.7519999742507935 C15.307000160217285,0.7519999742507935 5.400000095367432,14.984000205993652 5.400000095367432,14.984000205993652z"></path></g><g opacity="1" transform="matrix(1,0,0,1,83.87899780273438,30.121000289916992)"><path fill="rgb(138,102,81)" fill-opacity="1" d=" M-9.657999992370605,9.503000259399414 C-9.657999992370605,9.503000259399414 -0.9490000009536743,7.664999961853027 -0.9490000009536743,7.664999961853027 C-0.9490000009536743,7.664999961853027 9.657999992370605,-5.425000190734863 9.657999992370605,-5.425000190734863 C9.657999992370605,-5.425000190734863 -2.260999917984009,-9.503000259399414 -2.260999917984009,-9.503000259399414 C-2.260999917984009,-9.503000259399414 -9.657999992370605,9.503000259399414 -9.657999992370605,9.503000259399414z"></path></g></g></g><g transform="matrix(1,-0.000007413130333588924,0.000007413130333588924,1,73.53297424316406,-0.24905526638031006)" opacity="1" style="display: block;"><g opacity="1" transform="matrix(1,0,0,1,119.4219970703125,49.50899887084961)"><path fill="rgb(117,87,0)" fill-opacity="1" d=" M3.6659998893737793,-12.571000099182129 C3.6659998893737793,-12.571000099182129 14.96500015258789,5.47599983215332 14.96500015258789,5.47599983215332 C14.96500015258789,5.47599983215332 8.418000221252441,16.187999725341797 8.418000221252441,16.187999725341797 C8.418000221252441,16.187999725341797 -14.96500015258789,-9.651000022888184 -14.96500015258789,-9.651000022888184 C-14.96500015258789,-9.651000022888184 -2.7249999046325684,-16.187999725341797 -2.7249999046325684,-16.187999725341797 C-2.7249999046325684,-16.187999725341797 3.6659998893737793,-12.571000099182129 3.6659998893737793,-12.571000099182129z"></path></g><g opacity="1" transform="matrix(1,0,0,1,62.722999572753906,125.00199890136719)"><path fill="rgb(195,151,122)" fill-opacity="1" d=" M-40.40399932861328,-53.358001708984375 C-40.40399932861328,-53.358001708984375 -4.874000072479248,-54.37699890136719 -4.874000072479248,-54.37699890136719 C-4.874000072479248,-54.37699890136719 19.371999740600586,-3.760999917984009 19.371999740600586,-3.760999917984009 C19.371999740600586,-3.760999917984009 40.40399932861328,54.37699890136719 40.40399932861328,54.37699890136719 C40.40399932861328,54.37699890136719 12.38599967956543,48.54199981689453 12.38599967956543,48.54199981689453 C12.38599967956543,48.54199981689453 -4.874000072479248,32.380001068115234 -4.874000072479248,32.380001068115234 C-4.874000072479248,32.380001068115234 -19.288000106811523,3.3299999237060547 -19.288000106811523,3.3299999237060547 C-19.288000106811523,3.3299999237060547 -39.375999450683594,0.07100000232458115 -39.375999450683594,0.07100000232458115 C-39.375999450683594,0.07100000232458115 -40.40399932861328,-53.358001708984375 -40.40399932861328,-53.358001708984375z"></path></g><g opacity="1" transform="matrix(1,0,0,1,61.694000244140625,38.79399871826172)"><path fill="rgb(204,172,19)" fill-opacity="1" d=" M52.78799819946289,-38.54399871826172 C52.78799819946289,-38.54399871826172 -52.78799819946289,9.70199966430664 -52.78799819946289,9.70199966430664 C-52.78799819946289,9.70199966430664 -43.284000396728516,38.54399871826172 -43.284000396728516,38.54399871826172 C-43.284000396728516,38.54399871826172 -11.868000030517578,37.8120002746582 -11.868000030517578,37.8120002746582 C-11.868000030517578,37.8120002746582 45.000999450683594,-4.577000141143799 45.000999450683594,-4.577000141143799 C45.000999450683594,-4.577000141143799 52.78799819946289,-38.54399871826172 52.78799819946289,-38.54399871826172z"></path></g><g opacity="1" transform="matrix(1,0,0,1,26.06999969482422,100.1500015258789)"><path fill="rgb(117,87,0)" fill-opacity="1" d=" M14.550999641418457,-18.56100082397461 C13.54800033569336,-20.413999557495117 25.81999969482422,18.79400062561035 25.81999969482422,18.79400062561035 C25.81999969482422,18.79400062561035 20.017000198364258,22.864999771118164 20.017000198364258,22.864999771118164 C20.017000198364258,22.864999771118164 13.024999618530273,13.37600040435791 13.024999618530273,13.37600040435791 C13.024999618530273,13.37600040435791 1.8730000257492065,21.506000518798828 1.8730000257492065,21.506000518798828 C1.8730000257492065,21.506000518798828 -2.7230000495910645,24.92300033569336 -2.7230000495910645,24.92300033569336 C-2.7230000495910645,24.92300033569336 -25.81999969482422,3.296999931335449 -25.81999969482422,3.296999931335449 C-25.81999969482422,3.296999931335449 -2.7339999675750732,-24.92300033569336 -2.7339999675750732,-24.92300033569336 C-2.7339999675750732,-24.92300033569336 14.550999641418457,-18.56100082397461 14.550999641418457,-18.56100082397461z"></path></g><g opacity="1" transform="matrix(1,0,0,1,38.95100021362305,128.10800170898438)"><path fill="rgb(223,188,164)" fill-opacity="1" d=" M-0.2460000067949295,-15.11400032043457 C-0.2460000067949295,-15.11400032043457 15.604000091552734,6.4019999504089355 15.604000091552734,6.4019999504089355 C15.604000091552734,6.4019999504089355 3.7750000953674316,15.11400032043457 3.7750000953674316,15.11400032043457 C3.7750000953674316,15.11400032043457 -15.604000091552734,-3.0360000133514404 -15.604000091552734,-3.0360000133514404 C-15.604000091552734,-3.0360000133514404 -0.2460000067949295,-15.11400032043457 -0.2460000067949295,-15.11400032043457z"></path></g><g opacity="1" transform="matrix(1,0,0,1,50.28799819946289,145.9459991455078)"><path fill="rgb(138,102,81)" fill-opacity="1" d=" M4.267000198364258,-11.435999870300293 C4.267000198364258,-11.435999870300293 7.560999870300293,11.437000274658203 7.560999870300293,11.437000274658203 C7.560999870300293,11.437000274658203 -7.560999870300293,-2.7239999771118164 -7.560999870300293,-2.7239999771118164 C-7.560999870300293,-2.7239999771118164 4.267000198364258,-11.435999870300293 4.267000198364258,-11.435999870300293z"></path></g><g opacity="1" transform="matrix(1,0,0,1,101.0530014038086,102.00900268554688)"><path fill="rgb(223,188,164)" fill-opacity="1" d=" M-7.9679999351501465,62.1510009765625 C-7.9679999351501465,62.1510009765625 16.507999420166016,44.362998962402344 16.507999420166016,44.362998962402344 C16.507999420166016,44.362998962402344 51.22600173950195,25.920000076293945 51.22600173950195,25.920000076293945 C51.22600173950195,25.920000076293945 16.641000747680664,-62.1510009765625 16.641000747680664,-62.1510009765625 C16.641000747680664,-62.1510009765625 -23.500999450683594,-46.069000244140625 -23.500999450683594,-46.069000244140625 C-23.500999450683594,-46.069000244140625 -51.22600173950195,-25.40399932861328 -51.22600173950195,-25.40399932861328 C-51.22600173950195,-25.40399932861328 -7.9679999351501465,62.1510009765625 -7.9679999351501465,62.1510009765625z"></path></g><g opacity="1" transform="matrix(1,0,0,1,113.09600067138672,104.10900115966797)"><path fill="rgb(138,102,81)" fill-opacity="1" d=" M1.378000020980835,2.3570001125335693 C1.378000020980835,2.3570001125335693 2.8289999961853027,-2.3570001125335693 2.8289999961853027,-2.3570001125335693 C2.8289999961853027,-2.3570001125335693 -2.8289999961853027,0.6240000128746033 -2.8289999961853027,0.6240000128746033 C-2.8289999961853027,0.6240000128746033 1.378000020980835,2.3570001125335693 1.378000020980835,2.3570001125335693z"></path></g><g opacity="1" transform="matrix(1,0,0,1,78.75,80.5780029296875)"><path fill="rgb(117,87,0)" fill-opacity="1" d=" M-14.239999771118164,8.66100025177002 C-14.239999771118164,8.66100025177002 4.997000217437744,-8.66100025177002 4.997000217437744,-8.66100025177002 C4.997000217437744,-8.66100025177002 14.239999771118164,-2.062999963760376 14.239999771118164,-2.062999963760376 C14.239999771118164,-2.062999963760376 -14.239999771118164,8.66100025177002 -14.239999771118164,8.66100025177002z"></path></g><g opacity="1" transform="matrix(1,0,0,1,112.7040023803711,68.15799713134766)"><path fill="rgb(117,87,0)" fill-opacity="1" d=" M-8.20300006866455,-5.388000011444092 C-8.20300006866455,-5.388000011444092 9.880000114440918,-5.4070000648498535 9.880000114440918,-5.4070000648498535 C9.880000114440918,-5.4070000648498535 -9.880000114440918,5.4070000648498535 -9.880000114440918,5.4070000648498535 C-9.880000114440918,5.4070000648498535 -8.20300006866455,-5.388000011444092 -8.20300006866455,-5.388000011444092z"></path></g><g opacity="1" transform="matrix(1,0,0,1,87.38899993896484,91.62300109863281)"><path fill="rgb(195,151,122)" fill-opacity="1" d=" M-22.8799991607666,-2.384999990463257 C-22.8799991607666,-2.384999990463257 -3.315000057220459,-4.958000183105469 -3.315000057220459,-4.958000183105469 C-3.315000057220459,-4.958000183105469 22.8799991607666,13.109000205993652 22.8799991607666,13.109000205993652 C22.8799991607666,13.109000205993652 13.664999961853027,-6.686999797821045 13.664999961853027,-6.686999797821045 C13.664999961853027,-6.686999797821045 5.6020002365112305,-13.109000205993652 5.6020002365112305,-13.109000205993652 C5.6020002365112305,-13.109000205993652 -22.8799991607666,-2.384999990463257 -22.8799991607666,-2.384999990463257z"></path></g><g opacity="1" transform="matrix(1,0,0,1,112.7040023803711,82.2490005493164)"><path fill="rgb(195,151,122)" fill-opacity="1" d=" M1.4550000429153442,-8.826000213623047 C1.4550000429153442,-8.826000213623047 3.2209999561309814,19.500999450683594 3.2209999561309814,19.500999450683594 C3.2209999561309814,19.500999450683594 -5.561999797821045,5.8520002365112305 -5.561999797821045,5.8520002365112305 C-5.561999797821045,5.8520002365112305 -9.880000114440918,-8.682999610900879 -9.880000114440918,-8.682999610900879 C-9.880000114440918,-8.682999610900879 9.880000114440918,-19.500999450683594 9.880000114440918,-19.500999450683594 C9.880000114440918,-19.500999450683594 1.4550000429153442,-8.826000213623047 1.4550000429153442,-8.826000213623047z"></path></g><g opacity="1" transform="matrix(1,0,0,1,113.31600189208984,116.33699798583984)"><path fill="rgb(195,151,122)" fill-opacity="1" d=" M-18.454999923706055,4.675000190734863 C-18.454999923706055,4.675000190734863 18.454999923706055,-13.045999526977539 18.454999923706055,-13.045999526977539 C18.454999923706055,-13.045999526977539 16.89299964904785,4.085000038146973 16.89299964904785,4.085000038146973 C16.89299964904785,4.085000038146973 -0.04800000041723251,13.045999526977539 -0.04800000041723251,13.045999526977539 C-0.04800000041723251,13.045999526977539 -18.454999923706055,4.675000190734863 -18.454999923706055,4.675000190734863z"></path></g><g opacity="1" transform="matrix(1,0,0,1,115.4219970703125,116.45600128173828)"><path fill="rgb(255,255,255)" fill-opacity="1" d=" M-12.597999572753906,4.539999961853027 C-12.597999572753906,4.539999961853027 12.597999572753906,-7.513000011444092 12.597999572753906,-7.513000011444092 C12.597999572753906,-7.513000011444092 11.84000015258789,-0.6470000147819519 11.84000015258789,-0.6470000147819519 C11.84000015258789,-0.6470000147819519 -3.7360000610351562,7.513000011444092 -3.7360000610351562,7.513000011444092 C-3.7360000610351562,7.513000011444092 -12.597999572753906,4.539999961853027 -12.597999572753906,4.539999961853027z"></path></g><g opacity="1" transform="matrix(1,0,0,1,25.038999557495117,75.97100067138672)"><path fill="rgb(117,87,0)" fill-opacity="1" d=" M-16.131999969482422,-27.47599983215332 C-16.131999969482422,-27.47599983215332 -24.788000106811523,27.47599983215332 -24.788000106811523,27.47599983215332 C-24.788000106811523,27.47599983215332 3.816999912261963,11.98900032043457 3.816999912261963,11.98900032043457 C3.816999912261963,11.98900032043457 24.788000106811523,0.6330000162124634 24.788000106811523,0.6330000162124634 C24.788000106811523,0.6330000162124634 -16.131999969482422,-27.47599983215332 -16.131999969482422,-27.47599983215332z"></path></g><g opacity="1" transform="matrix(1,0,0,1,86.45700073242188,38.428001403808594)"><path fill="rgb(187,143,44)" fill-opacity="1" d=" M-36.63100051879883,38.176998138427734 C-36.63100051879883,38.176998138427734 36.63100051879883,-1.4900000095367432 36.63100051879883,-1.4900000095367432 C36.63100051879883,-1.4900000095367432 28.024999618530273,-38.176998138427734 28.024999618530273,-38.176998138427734 C28.024999618530273,-38.176998138427734 -36.63100051879883,38.176998138427734 -36.63100051879883,38.176998138427734z"></path></g><g opacity="1" transform="matrix(1,0,0,1,38.119998931884766,126.68099975585938)"><path fill="rgb(138,102,81)" fill-opacity="1" d=" M-7.196000099182129,-1.2330000400543213 C-7.196000099182129,-1.2330000400543213 -1.5800000429153442,-5.440000057220459 -1.5800000429153442,-5.440000057220459 C-1.5800000429153442,-5.440000057220459 7.196000099182129,5.440000057220459 7.196000099182129,5.440000057220459 C7.196000099182129,5.440000057220459 -7.196000099182129,-1.2330000400543213 -7.196000099182129,-1.2330000400543213z"></path></g><g opacity="1" transform="matrix(1,0,0,1,104.45800018310547,89.14900207519531)"><path fill="rgb(232,201,182)" fill-opacity="1" d=" M-11.467000007629395,-10.633999824523926 C-11.467000007629395,-10.633999824523926 -1.6330000162124634,-15.583000183105469 -1.6330000162124634,-15.583000183105469 C-1.6330000162124634,-15.583000183105469 11.467000007629395,12.602999687194824 11.467000007629395,12.602999687194824 C11.467000007629395,12.602999687194824 5.809000015258789,15.583000183105469 5.809000015258789,15.583000183105469 C5.809000015258789,15.583000183105469 -11.467000007629395,-10.633999824523926 -11.467000007629395,-10.633999824523926z"></path></g><g opacity="1" transform="matrix(1,0,0,1,99.07099914550781,162.875)"><path fill="rgb(138,102,81)" fill-opacity="1" d=" M18.489999771118164,-16.5049991607666 C18.489999771118164,-16.5049991607666 17.152999877929688,0.9620000123977661 17.152999877929688,0.9620000123977661 C17.152999877929688,0.9620000123977661 4.056000232696533,16.5049991607666 4.056000232696533,16.5049991607666 C4.056000232696533,16.5049991607666 -18.489999771118164,3.0999999046325684 -18.489999771118164,3.0999999046325684 C-18.489999771118164,3.0999999046325684 18.489999771118164,-16.5049991607666 18.489999771118164,-16.5049991607666z"></path></g></g><g transform="matrix(1,-0.000007413130333588924,0.000007413130333588924,1,155.3795166015625,71.92333984375)" opacity="1" style="display: block;"><g opacity="1" transform="matrix(1,0,0,1,35.71500015258789,5.163000106811523)"><path fill="rgb(43,43,43)" fill-opacity="1" d=" M4.913000106811523,0 C4.913000106811523,2.7130000591278076 2.7130000591278076,4.913000106811523 0,4.913000106811523 C-2.7130000591278076,4.913000106811523 -4.913000106811523,2.7130000591278076 -4.913000106811523,0 C-4.913000106811523,-2.7139999866485596 -2.7130000591278076,-4.913000106811523 0,-4.913000106811523 C2.7130000591278076,-4.913000106811523 4.913000106811523,-2.7139999866485596 4.913000106811523,0z"></path></g><g opacity="1" transform="matrix(1,0,0,1,5.163000106811523,19.450000762939453)"><path fill="rgb(43,43,43)" fill-opacity="1" d=" M4.913000106811523,0 C4.913000106811523,2.7139999866485596 2.7130000591278076,4.913000106811523 0,4.913000106811523 C-2.7139999866485596,4.913000106811523 -4.913000106811523,2.7139999866485596 -4.913000106811523,0 C-4.913000106811523,-2.7130000591278076 -2.7139999866485596,-4.913000106811523 0,-4.913000106811523 C2.7130000591278076,-4.913000106811523 4.913000106811523,-2.7130000591278076 4.913000106811523,0z"></path></g></g></g></svg>